HIERARCHY
ROOT SpineBase
{
  OFFSET 0.000000 0.000000 0.000000
  CHANNELS 6 Xposition Yposition Zposition Zrotation Xrotation Yrotation
  JOINT SpineMid
  {
    OFFSET 0.000000 29.625716 0.000000
    CHANNELS 3 Zrotation Xrotation Yrotation
    JOINT SpineShoulder
    {
      OFFSET -0.067480 22.223185 -0.810009
      CHANNELS 3 Zrotation Xrotation Yrotation
      JOINT Neck
      {
        OFFSET -0.069608 7.416219 -0.584989
        CHANNELS 3 Zrotation Xrotation Yrotation
        JOINT Head
        {
          OFFSET 5.294788 10.424948 -2.332126
          CHANNELS 3 Zrotation Xrotation Yrotation
          End Site
          {
            OFFSET 0 0 0
          }
        }
      }
      JOINT ShoulderLeft
      {
        OFFSET -12.752706 0.221045 -8.515439
        CHANNELS 3 Zrotation Xrotation Yrotation
        JOINT ElbowLeft
        {
          OFFSET -4.996507 -18.866818 -9.000407
          CHANNELS 3 Zrotation Xrotation Yrotation
          JOINT WristLeft
          {
            OFFSET 12.301431 -19.513783 -4.952640
            CHANNELS 3 Zrotation Xrotation Yrotation
            JOINT HandLeft
            {
              OFFSET 3.265922 -4.538561 0.835797
              CHANNELS 3 Zrotation Xrotation Yrotation
              JOINT HandTipLeft
              {
                OFFSET 2.565079 -6.265428 -2.725727
                CHANNELS 3 Zrotation Xrotation Yrotation
                End Site
                {
                  OFFSET 0 0 0
                }
              }
              JOINT ThumbLeft
              {
                OFFSET -0.653133 0.778811 5.655995
                CHANNELS 3 Zrotation Xrotation Yrotation
                End Site
                {
                  OFFSET 0 0 0
                }
              }
            }
          }
        }
      }
      JOINT ShoulderRight
      {
        OFFSET 14.843902 -6.412264 6.954139
        CHANNELS 3 Zrotation Xrotation Yrotation
        JOINT ElbowRight
        {
          OFFSET 3.379221 -28.281354 -0.845244
          CHANNELS 3 Zrotation Xrotation Yrotation
          JOINT WristRight
          {
            OFFSET 8.468203 -22.991249 -10.586926
            CHANNELS 3 Zrotation Xrotation Yrotation
            JOINT HandRight
            {
              OFFSET -0.429477 -5.082649 -2.189738
              CHANNELS 3 Zrotation Xrotation Yrotation
              JOINT HandTipRight
              {
                OFFSET -0.106299 -7.273910 -0.598487
                CHANNELS 3 Zrotation Xrotation Yrotation
                End Site
                {
                  OFFSET 0 0 0
                }
              }
              JOINT ThumbRight
              {
                OFFSET -3.722550 0.183765 0.746949
                CHANNELS 3 Zrotation Xrotation Yrotation
                End Site
                {
                  OFFSET 0 0 0
                }
              }
            }
          }
        }
      }
    }
  }
  JOINT HipLeft
  {
    OFFSET -5.820971 2.352537 -6.381216
    CHANNELS 3 Zrotation Xrotation Yrotation
    JOINT KneeLeft
    {
      OFFSET -5.802562 -23.838505 -1.759585
      CHANNELS 3 Zrotation Xrotation Yrotation
      JOINT AnkleLeft
      {
        OFFSET -8.521282 -33.957289 4.996451
        CHANNELS 3 Zrotation Xrotation Yrotation
        JOINT FootLeft
        {
          OFFSET 4.504611 -2.952250 -11.777688
          CHANNELS 3 Zrotation Xrotation Yrotation
          End Site
          {
            OFFSET 0 0 0
          }
        }
      }
    }
  }
  JOINT HipRight
  {
    OFFSET 5.235509 0.190544 -0.092331
    CHANNELS 3 Zrotation Xrotation Yrotation
    JOINT KneeRight
    {
      OFFSET -3.138825 -23.834100 -3.841819
      CHANNELS 3 Zrotation Xrotation Yrotation
      JOINT AnkleRight
      {
        OFFSET -4.785911 -28.907020 7.419211
        CHANNELS 3 Zrotation Xrotation Yrotation
        JOINT FootRight
        {
          OFFSET 4.654049 -2.840952 -12.016495
          CHANNELS 3 Zrotation Xrotation Yrotation
          End Site
          {
            OFFSET 0 0 0
          }
        }
      }
    }
  }
}
MOTION
Frames: 15
Frame Time: 0.033333
39.307588 62.262520 372.391354 -5.920410 -1.280180 -20.303946 -0.394798 0.204938 20.029042 0.163901 0.005333 -0.258259 10.450507 6.157822 -1.510802 0.000000 0.000000 0.000000 -2.759678 -12.121094 7.542266 -18.986975 14.405302 6.601235 -10.217580 13.550704 -1.909884 35.249667 -26.844725 -2.763744 0.000000 0.000000 0.000000 0.000000 0.000000 0.000000 81.219186 14.831321 -11.650672 -8.433543 5.902565 -21.595567 12.023688 -0.121966 -16.630725 -19.535712 37.707729 1.628850 0.000000 0.000000 0.000000 0.000000 0.000000 0.000000 -0.109583 2.623129 20.440004 4.633901 1.664837 -0.820947 -1.982724 -2.764575 11.146200 0.000000 0.000000 0.000000 1.282920 -1.085910 21.345795 -0.239754 7.744395 -3.051169 2.545478 -7.219721 13.331433 0.000000 0.000000 0.000000
39.692511 62.276179 372.431401 -5.857411 -1.326453 -19.350853 -0.458313 0.216411 19.076467 0.227512 -0.036100 -0.256426 10.582897 6.311803 -1.544923 0.000000 0.000000 0.000000 -3.484813 -12.697689 7.937103 -19.846562 14.618648 6.744492 -9.042612 12.827080 -3.582449 31.678844 -24.892451 -1.276037 0.000000 0.000000 0.000000 0.000000 0.000000 0.000000 80.054734 14.124867 -11.047380 -6.888427 2.638811 -21.360372 17.675078 -4.496421 -12.458694 -20.658419 40.458872 0.662475 0.000000 0.000000 0.000000 0.000000 0.000000 0.000000 -0.328909 2.784037 19.466921 4.576996 1.371404 -0.777267 -1.913310 -2.595632 11.714537 0.000000 0.000000 0.000000 1.156979 -0.856410 20.364984 -0.785857 7.225033 -3.068282 0.980083 -15.146022 12.969512 0.000000 0.000000 0.000000
40.022582 62.295234 372.413603 -5.947843 -1.312008 -18.485442 -0.488335 0.255366 18.209663 0.204467 -0.052224 -0.263433 11.056907 6.341066 -1.513753 0.000000 0.000000 0.000000 -3.978429 -13.541661 8.354505 -20.360900 15.125509 6.867892 -7.761441 11.867674 -5.384643 29.225796 -24.752259 -0.858137 0.000000 0.000000 0.000000 0.000000 0.000000 0.000000 79.091832 12.745975 -9.992253 -5.720139 -0.330276 -21.297877 23.933112 -8.562450 -7.774356 -20.595567 42.327863 0.039197 0.000000 0.000000 0.000000 0.000000 0.000000 0.000000 -0.322647 2.903234 18.583827 4.440095 1.137415 -0.753994 -1.775500 -2.440735 12.145692 0.000000 0.000000 0.000000 1.249826 -0.552435 19.451699 -1.382613 6.665670 -3.074929 -0.445821 -22.032368 12.335978 0.000000 0.000000 0.000000
40.311040 62.327490 372.345025 -5.980043 -1.252168 -17.709459 -0.527271 0.275323 17.436008 0.180641 -0.041209 -0.266730 11.039827 6.287895 -1.535479 0.000000 0.000000 0.000000 -4.558192 -14.421563 8.762128 -20.617496 15.680116 6.923636 -6.559623 8.508962 -10.561284 27.342568 -18.125197 3.407193 0.000000 0.000000 0.000000 0.000000 0.000000 0.000000 77.977917 10.487848 -8.425093 -4.699196 -3.260261 -21.478827 28.263844 -11.304850 -3.411989 -18.585994 42.461556 0.272079 0.000000 0.000000 0.000000 0.000000 0.000000 0.000000 -0.320279 2.864005 17.809191 4.321827 1.108385 -0.780606 -1.658291 -2.371861 12.601434 0.000000 0.000000 0.000000 1.270042 -0.346107 18.641170 -1.847428 6.176470 -3.090798 -1.424081 -26.613272 11.959515 0.000000 0.000000 0.000000
40.543759 62.362402 372.260396 -6.139114 -1.137245 -17.020477 -0.524588 0.270697 16.745425 0.150302 -0.025914 -0.274141 11.283344 6.203953 -1.515462 0.000000 0.000000 0.000000 -5.041498 -15.189474 9.136060 -20.514161 15.767074 6.355515 -5.708549 6.300989 -13.828613 25.483295 -14.704759 6.019223 0.000000 0.000000 0.000000 0.000000 0.000000 0.000000 77.749595 9.867638 -7.909136 -4.075869 -7.196438 -21.061254 29.657662 -12.179721 -0.956689 -16.124892 40.181465 2.158778 0.000000 0.000000 0.000000 0.000000 0.000000 0.000000 -0.114582 2.761060 17.125294 4.160454 1.301610 -0.858076 -1.529306 -2.469141 12.999979 0.000000 0.000000 0.000000 1.298547 -0.150740 17.933817 -2.040506 5.647860 -3.106695 -1.659003 -28.048856 12.097316 0.000000 0.000000 0.000000
40.740419 62.389756 372.152280 -6.353782 -1.008920 -16.397013 -0.453551 0.263059 16.119416 0.084500 0.004999 -0.282756 11.282464 6.211287 -1.592411 0.000000 0.000000 0.000000 -5.260788 -15.977869 9.423999 -20.798263 15.697148 5.836527 -2.508928 5.718010 -13.841668 21.180530 -14.872701 6.360434 0.000000 0.000000 0.000000 0.000000 0.000000 0.000000 77.981775 9.153199 -7.406832 -4.206217 -10.030996 -20.793409 30.166470 -11.968330 -0.201899 -12.786468 40.305112 1.028127 0.000000 0.000000 0.000000 0.000000 0.000000 0.000000 0.152500 2.628009 16.511877 3.951477 1.565461 -0.959147 -1.351011 -2.610087 13.406247 0.000000 0.000000 0.000000 1.314035 -0.078881 17.319325 -2.063144 5.238746 -3.140654 -0.927510 -26.042875 13.022785 0.000000 0.000000 0.000000
40.872494 62.446219 372.027336 -6.761624 -0.814130 -15.821673 -0.347826 0.277140 15.540008 -0.051373 0.066757 -0.300381 11.702019 5.935157 -1.503463 0.000000 0.000000 0.000000 -5.179573 -16.734388 9.650110 -21.333077 15.420167 5.357725 0.382090 8.024229 -10.377084 17.932709 -15.897490 5.567772 0.000000 0.000000 0.000000 0.000000 0.000000 0.000000 78.078510 8.921184 -7.016540 -3.990607 -12.076877 -20.474187 30.592296 -11.895221 0.340241 -13.007240 36.124707 5.449494 0.000000 0.000000 0.000000 0.000000 0.000000 0.000000 0.705454 2.537059 15.928624 3.659257 1.648188 -1.006582 -1.216566 -2.579802 13.895470 0.000000 0.000000 0.000000 1.532720 -0.165078 16.770685 -1.929400 5.033480 -3.175873 0.491770 -20.791326 14.603299 0.000000 0.000000 0.000000
41.026996 62.526324 371.913115 -6.900504 -0.626443 -15.171681 -0.395638 0.264881 14.894094 0.034239 0.092782 -0.299049 10.959131 5.653924 -1.571817 0.000000 0.000000 0.000000 -5.065466 -17.443199 9.725718 -22.054026 15.243470 5.141085 1.863390 10.800212 -6.772812 13.781519 -17.964924 4.589212 0.000000 0.000000 0.000000 0.000000 0.000000 0.000000 78.480773 9.423768 -7.159669 -4.896924 -13.382372 -19.958737 28.935393 -8.288297 -4.406389 -13.276846 30.098348 11.211926 0.000000 0.000000 0.000000 0.000000 0.000000 0.000000 0.844026 2.469198 15.264753 3.485309 1.781944 -1.070533 -1.062632 -2.722392 14.391684 0.000000 0.000000 0.000000 1.417949 -0.433663 16.177389 -1.736799 4.942955 -3.243738 2.336791 -13.045190 16.129470 0.000000 0.000000 0.000000
41.199003 62.615382 371.812888 -7.086698 -0.456365 -14.536654 -0.301922 0.275209 14.264009 0.122279 0.089871 -0.295549 9.770298 5.594947 -1.810965 0.000000 0.000000 0.000000 -5.115503 -18.010832 9.807556 -22.830262 15.247046 5.256165 3.471709 13.302587 -3.578919 9.039635 -19.058651 3.828408 0.000000 0.000000 0.000000 0.000000 0.000000 0.000000 78.981572 10.636051 -7.783347 -5.656764 -13.058239 -19.577522 25.087325 -2.051076 -11.693850 -10.785112 23.423644 16.563250 0.000000 0.000000 0.000000 0.000000 0.000000 0.000000 0.929293 2.519482 14.601996 3.465856 1.809632 -1.098283 -1.000979 -2.875181 14.880362 0.000000 0.000000 0.000000 1.224078 -0.803874 15.628304 -1.226167 4.957707 -3.310408 4.030001 -4.194710 17.164383 0.000000 0.000000 0.000000
41.370163 62.694427 371.743753 -7.456518 -0.285560 -14.006511 -0.320168 0.271451 13.730459 0.101023 0.084712 -0.312811 9.907761 5.532201 -1.859891 0.000000 0.000000 0.000000 -4.765751 -18.332293 9.869792 -23.014965 15.339097 5.338200 2.676565 15.715250 -0.575238 6.791708 -22.409847 1.234662 0.000000 0.000000 0.000000 0.000000 0.000000 0.000000 80.006877 12.721426 -8.900146 -6.330193 -10.910176 -19.287688 21.133648 3.076118 -16.925200 -9.282113 19.512932 18.934404 0.000000 0.000000 0.000000 0.000000 0.000000 0.000000 1.128046 2.769762 14.015569 3.530077 1.618718 -1.063309 -1.000276 -2.983530 15.317508 0.000000 0.000000 0.000000 1.135868 -1.001070 15.174326 -0.584056 4.768418 -3.348794 4.328240 -1.556740 17.387286 0.000000 0.000000 0.000000
41.544132 62.749453 371.707422 -7.886288 -0.128019 -13.399978 -0.412765 0.259175 13.116622 0.054657 0.058835 -0.339572 10.395020 5.644885 -1.943929 0.000000 0.000000 0.000000 -4.239521 -18.435942 9.906756 -22.667935 15.717857 5.599950 0.776775 17.036951 1.224562 4.730925 -26.633878 -2.063788 0.000000 0.000000 0.000000 0.000000 0.000000 0.000000 81.548785 15.463768 -10.512246 -7.601309 -7.332596 -19.031268 19.631759 4.186015 -18.890428 -11.141141 18.740476 17.874073 0.000000 0.000000 0.000000 0.000000 0.000000 0.000000 1.340482 3.232125 13.319721 3.599813 1.127485 -0.953826 -0.998788 -2.991904 15.702535 0.000000 0.000000 0.000000 1.094416 -1.300048 14.657110 0.207776 4.766076 -3.386535 4.608394 1.829564 17.840677 0.000000 0.000000 0.000000
41.694783 62.770956 371.708206 -8.360487 0.020957 -12.788957 -0.589214 0.256387 12.496389 -0.056652 0.075916 -0.373508 11.296458 5.567747 -1.891737 0.000000 0.000000 0.000000 -3.776337 -18.354396 9.977465 -22.544555 15.940579 6.042915 0.618797 19.161919 4.323046 1.772471 -30.129610 -6.587811 0.000000 0.000000 0.000000 0.000000 0.000000 0.000000 82.901351 18.989024 -12.493470 -8.165778 -5.192801 -18.335072 17.680877 5.301897 -20.527320 -11.851140 18.049260 16.731870 0.000000 0.000000 0.000000 0.000000 0.000000 0.000000 1.610119 3.878409 12.588806 3.638115 0.448962 -0.793455 -1.145087 -1.421791 18.006673 0.000000 0.000000 0.000000 1.235506 -1.712078 14.128539 0.916873 5.002513 -3.422660 3.159201 -3.760624 17.860974 0.000000 0.000000 0.000000
41.818116 62.790270 371.717347 -8.790321 0.134366 -12.200626 -0.835076 0.245741 11.896377 -0.196766 0.086993 -0.411799 12.274545 5.401879 -1.761655 0.000000 0.000000 0.000000 -3.052337 -18.128357 9.977998 -21.723732 16.847672 6.948890 0.603143 18.680006 4.106401 2.738066 -32.934561 -9.742101 0.000000 0.000000 0.000000 0.000000 0.000000 0.000000 83.909886 22.796860 -14.610255 -7.772792 -3.493005 -17.493165 17.438153 2.147347 -19.024448 -13.829658 23.772939 11.768789 0.000000 0.000000 0.000000 0.000000 0.000000 0.000000 1.903339 4.626041 11.863216 3.533032 -0.435742 -0.594540 -0.906377 -3.251871 15.842799 0.000000 0.000000 0.000000 1.422124 -2.134491 13.611140 1.558820 5.287983 -3.445754 2.192717 -6.795037 17.830221 0.000000 0.000000 0.000000
41.937422 62.792161 371.736221 -9.108564 0.231330 -11.658103 -1.027931 0.210319 11.343180 -0.252118 0.090558 -0.437510 12.838211 5.190617 -1.632398 0.000000 0.000000 0.000000 -2.817016 -17.840658 10.041841 -20.003713 17.997921 7.520869 0.173328 16.585143 1.781233 6.343621 -33.838862 -10.002536 0.000000 0.000000 0.000000 0.000000 0.000000 0.000000 84.239469 26.298490 -16.493858 -6.708185 -4.048130 -16.294165 18.363148 -0.427637 -17.702098 -16.961002 28.870286 7.621532 0.000000 0.000000 0.000000 0.000000 0.000000 0.000000 2.129387 5.348547 11.185804 3.547704 -1.275191 -0.379720 -0.184606 -2.758605 13.198904 0.000000 0.000000 0.000000 1.529986 -2.553275 13.132186 2.177690 5.596798 -3.466088 1.342610 -9.116899 17.851719 0.000000 0.000000 0.000000
42.068122 62.800612 371.734942 -9.360140 0.292314 -11.214332 -1.148419 0.179940 10.889992 -0.324356 0.070660 -0.461448 13.437082 5.144898 -1.546303 0.000000 0.000000 0.000000 -2.223621 -17.212879 9.904819 -18.665739 18.372318 7.661549 -1.072147 15.634345 0.963105 11.355177 -36.029113 -11.221829 0.000000 0.000000 0.000000 0.000000 0.000000 0.000000 84.333708 28.947423 -17.890740 -5.479187 -5.493813 -15.148019 17.321629 -0.363445 -17.896106 -16.292739 30.497386 6.476543 0.000000 0.000000 0.000000 0.000000 0.000000 0.000000 2.343951 5.934242 10.632775 3.572126 -1.912126 -0.207188 -1.188684 -7.038107 12.447888 0.000000 0.000000 0.000000 1.549421 -2.907590 12.747643 2.770328 5.841334 -3.490766 0.700733 -10.550099 17.884712 0.000000 0.000000 0.000000
